<?xml version="1.0" encoding="utf-8"?>
<!-- Generator: Adobe Illustrator 23.0.5, SVG Export Plug-In . SVG Version: 6.00 Build 0)  -->
<svg version="1.1" id="Layer_1" xmlns="http://www.w3.org/2000/svg" xmlns:xlink="http://www.w3.org/1999/xlink" x="0px" y="0px"
	 viewBox="0 0 203 197" style="enable-background:new 0 0 203 197;" xml:space="preserve">
<style type="text/css">
	.st0{fill:#FFFFFF;}
</style>
<g>
	<polygon class="st0" points="67,76.3 46,27.5 26.8,27.5 26.8,123.5 46.3,123.5 46.3,70.3 67,118.8 87.9,70.3 87.9,123.5 
		107.3,123.5 107.3,27.5 88.1,27.5 	"/>
	<polygon class="st0" points="118.4,49.6 153.8,49.6 124.9,123.5 146.7,123.5 176.2,46 176.2,27.5 118.4,27.5 	"/>
	<path class="st0" d="M28.1,163.1h-6.2v15.3h3.4v-4.9h2.8c3.1,0,5.4-2.2,5.4-5.2S31.3,163.1,28.1,163.1z M25.3,166.5h2.5
		c1.4,0,2.2,0.7,2.2,1.8c0,1.2-0.8,1.8-2.2,1.8h-2.5V166.5z"/>
	<path class="st0" d="M47.9,168.5c0-3-2.3-5.2-5.4-5.2h-6.2v15.2h3.4v-4.9h1.8l3.1,4.9h3.9l-3.5-5.3
		C46.8,172.3,47.9,170.5,47.9,168.5z M44.4,168.4c0,1.2-0.8,1.8-2.2,1.8h-2.5v-3.7h2.5C43.6,166.5,44.4,167.3,44.4,168.4z"/>
	<path class="st0" d="M57.9,162.9c-4,0-7.4,3.6-7.4,7.9s3.4,7.9,7.4,7.9s7.4-3.6,7.4-7.9S61.9,162.9,57.9,162.9z M61.8,170.8
		c0,2.5-1.8,4.6-4,4.6c-2.2,0-4-2.1-4-4.6c0-2.5,1.8-4.6,4-4.6C60,166.2,61.8,168.3,61.8,170.8z"/>
	<path class="st0" d="M73.7,163.1h-5.1v15.3h5.1c4.6,0,7.9-3.2,7.9-7.7S78.4,163.1,73.7,163.1z M78.2,170.7c0,2.6-1.8,4.4-4.3,4.4
		h-2v-8.6h2C76.5,166.4,78.2,168.2,78.2,170.7z"/>
	<path class="st0" d="M94.1,171.8c0,2.1-1.2,3.6-2.9,3.6c-1.7,0-2.9-1.5-2.9-3.6v-8.6h-3.4v8.7c0,4,2.6,6.8,6.2,6.8
		c3.7,0,6.3-2.9,6.3-6.8v-8.7h-3.3V171.8z"/>
	<path class="st0" d="M111,174c-0.9,1-1.9,1.5-2.9,1.5c-2.2,0-4-2.1-4-4.6c0-2.5,1.8-4.6,4-4.6c1.1,0,2.1,0.5,2.8,1.4l0.3,0.5
		l2.4-2.5l-0.3-0.3c-1.4-1.6-3.3-2.5-5.3-2.5c-4,0-7.4,3.6-7.4,7.9c0,4.2,3.3,7.8,7.4,8.1l0,0c2,0,3.9-0.9,5.3-2.5l0.3-0.3l-2.3-2.4
		L111,174z"/>
	<polygon class="st0" points="115.5,166.5 119.7,166.5 119.7,178.5 123,178.5 123,166.5 127.2,166.5 127.2,163.2 115.5,163.2 	"/>
	<rect x="130.2" y="163.1" class="st0" width="3.3" height="15.2"/>
	<path class="st0" d="M144.1,162.9c-4,0-7.4,3.6-7.4,7.9s3.4,7.9,7.4,7.9c4,0,7.4-3.6,7.4-7.9S148.1,162.9,144.1,162.9z
		 M148.1,170.8c0,2.5-1.8,4.6-4,4.6c-2.2,0-4-2.1-4-4.6c0-2.5,1.8-4.6,4-4.6C146.3,166.2,148.1,168.3,148.1,170.8z"/>
	<polygon class="st0" points="164.1,172.1 158,163.1 154.8,163.1 154.8,178.4 158.2,178.4 158.2,169.4 164.3,178.4 167.4,178.4 
		167.4,163.1 164.1,163.1 	"/>
	<path class="st0" d="M177,169.1c-2.2-0.6-2.7-0.9-2.7-1.7c0-0.7,0.6-1.4,1.7-1.4c1.2,0,2.4,0.5,3.5,1.5l0.4,0.4l1.8-2.8l-0.3-0.3
		c-1.4-1.4-3.3-2.2-5.3-2.2c-3,0-5.2,2-5.2,4.9c0,3.2,2.4,4.1,4.9,4.7c2.2,0.6,2.7,0.9,2.7,1.7c0,0.9-0.7,1.5-1.9,1.5
		c-1.8,0-3.1-1-3.9-1.8l-0.4-0.4l-1.9,2.6l0.3,0.3c1.5,1.6,3.6,2.5,5.9,2.5c3.3,0,5.4-2,5.4-4.9C182,170.7,179.6,169.7,177,169.1z"
		/>
	<path class="st0" d="M200.4,145.7V10.2c0-4.1-3.3-7.4-7.4-7.4l-36.7,0.1H20.7l-0.2,0l-0.2,0c-1.9,0-3.8,0.8-5.2,2.2L4.8,15.5
		c-1.4,1.3-2.2,3.2-2.2,5.2v166.1c0,4.1,3.3,7.4,7.4,7.4h172.7c2.1,0,3.9-0.8,5.2-2.3l10.4-10.4c1.4-1.3,2.2-3.2,2.2-5.2v-29.7
		c0.1-0.1,0.1-0.3,0.1-0.4C200.5,146,200.5,145.9,200.4,145.7z M11.9,191.3l-0.4,0l-1.6,0c-2.6,0-4.6-2-4.6-4.6v-39.4h192.2v28.9
		c0,1.3-0.5,2.4-1.3,3.2l-10.4,10.4c-0.9,0.9-2,1.3-3.2,1.3l-1.7,0v0L11.9,191.3z M197.6,10.3V145H5.4V20.7c0-1.3,0.5-2.4,1.3-3.2
		L17,7.1c0.9-0.9,2-1.3,3.2-1.3h173.2V5.7C195.8,5.9,197.6,7.8,197.6,10.3z"/>
</g>
</svg>
